# Blender 4.5.3 LTS
# www.blender.org
mtllib nave.mtl
o Cube
v 1.000000 1.000000 2.528106
v 1.000000 -1.000000 2.528106
v -1.000000 1.000000 2.528106
v -1.000000 -1.000000 2.528106
v 0.121939 0.121939 -2.528106
v 1.000000 1.000000 -0.661970
v 0.121939 -0.121939 -2.528106
v 1.000000 -1.000000 -0.661970
v -0.121939 0.121939 -2.528106
v -1.000000 1.000000 -0.661970
v -0.121939 -0.121939 -2.528106
v -1.000000 -1.000000 -0.661970
v -0.261844 -0.261844 -2.528106
v 0.261844 -0.261844 -2.528106
v 0.261844 0.261844 -2.528106
v -0.261844 0.261844 -2.528106
v 1.000000 1.000000 4.481521
v 1.000000 -1.000000 4.481521
v -1.000000 1.000000 4.481521
v -1.000000 -1.000000 4.481521
v 0.766805 2.418707 3.117649
v -0.766805 2.418707 3.117649
v 0.766805 2.418707 3.891979
v -0.766805 2.418707 3.891979
v -2.857085 0.661418 3.384077
v -2.857085 1.338582 2.528106
v -2.518503 -1.000000 2.528106
v -2.857085 -0.661418 3.384077
v -2.857085 1.338582 4.481521
v -2.857085 0.661418 3.625550
v -2.857085 -0.661418 3.625550
v -2.518503 -1.000000 4.481521
v 2.626981 1.232675 2.528106
v 2.626981 0.767325 3.116334
v 2.626981 -0.767325 3.116334
v 2.394305 -1.000000 2.528106
v 2.626981 0.767325 3.893293
v 2.626981 1.232675 4.481521
v 2.394305 -1.000000 4.481521
v 2.626981 -0.767325 3.893293
v 1.000000 1.000000 2.528106
v -1.000000 1.000000 2.528106
v -1.000000 2.410737 2.528106
v -1.235378 2.646115 3.123166
v -1.235378 2.646115 3.886461
v -1.000000 2.410737 4.481521
v -2.621707 2.646115 3.123166
v -2.857085 2.410737 2.528106
v -2.857085 2.410737 4.481521
v -2.621707 2.646115 3.886461
v 1.225459 2.635663 3.098091
v 1.000000 2.410204 2.528106
v 1.000000 2.410204 4.481521
v 1.225459 2.635663 3.911536
v 2.626981 2.410204 2.528106
v 2.401522 2.635663 3.098091
v 2.401522 2.635663 3.911536
v 2.626981 2.410204 4.481521
v -3.583028 0.661418 3.384077
v -3.583028 -0.661418 3.384077
v -3.583028 0.661418 3.625550
v -3.583028 -0.661418 3.625550
v -1.235378 2.646115 3.123166
v -1.235378 2.646115 3.886461
v -2.621707 2.646115 3.123166
v -2.621707 2.646115 3.886461
v -3.583028 0.661418 3.384077
v -3.583028 -0.661418 3.384077
v -3.583028 0.661418 3.625550
v -1.235378 3.679439 3.123166
v -1.235378 3.679439 3.886461
v -2.621707 3.679439 3.123166
v -2.621707 3.679439 3.886461
v 1.225459 2.635663 3.098091
v 1.225459 2.635663 3.911536
v 2.401522 2.635663 3.098091
v 2.401522 2.635663 3.911536
v 1.225459 3.613752 3.098091
v 1.225459 3.613752 3.911536
v 2.401522 3.613752 3.098091
v 2.401522 3.613752 3.911536
v 2.994352 0.767325 3.116334
v 2.994352 -0.767325 3.116334
v 2.994352 0.767325 3.893293
v 2.994352 -0.767325 3.893293
v 3.201416 0.767325 3.116334
v 3.201416 -0.767325 3.116334
v 3.201416 0.767325 3.893293
v 3.201416 -0.767325 3.893293
v -0.766805 1.674627 3.891979
v -1.000000 1.441432 4.481521
v 0.766805 1.674627 3.891979
v 1.000000 1.441432 4.481521
v -1.000000 1.441432 2.528106
v -0.766805 1.674627 3.117649
v 0.766805 1.674627 3.117649
v 1.000000 1.441432 2.528106
v 0.766805 2.418707 3.117649
v -0.766805 2.418707 3.117649
v 0.766805 2.418707 3.891979
v -0.766805 2.418707 3.891979
v 1.000000 1.000000 4.626401
v 0.548213 0.548213 5.768568
v 0.548213 -0.548213 5.768568
v 1.000000 -1.000000 4.626401
v -0.548213 0.548213 5.768568
v -1.000000 1.000000 4.626401
v -1.000000 -1.000000 4.626401
v -0.548213 -0.548213 5.768568
vn -0.0000 -0.9299 -0.3678
vn 0.9299 -0.0000 -0.3678
vn -0.9299 -0.0000 -0.3678
vn -0.0000 0.9299 -0.3678
vn -0.0000 -0.0000 -1.0000
vn 1.0000 -0.0000 -0.0000
vn -0.0000 1.0000 -0.0000
vn -0.0000 -1.0000 -0.0000
vn -1.0000 -0.0000 -0.0000
vn -0.0000 -0.0000 1.0000
vn -0.9299 -0.0000 0.3678
vn -0.7071 -0.7071 -0.0000
vn 0.9913 -0.1033 -0.0817
vn 0.9913 -0.1033 0.0817
vn 0.7071 -0.7071 -0.0000
vn 0.7071 0.7071 -0.0000
vn -0.7071 0.7071 -0.0000
vn -0.0000 0.9299 0.3678
vn 0.9299 -0.0000 0.3678
vn -0.0000 -0.9299 0.3678
vn -0.9834 -0.1424 -0.1126
vn -0.9834 -0.1424 0.1126
vt 0.375000 0.181293
vt 0.467269 0.407730
vt 0.375000 0.576447
vt 0.532730 0.407730
vt 0.625000 0.576447
vt 0.467269 0.342269
vt 0.625000 0.181293
vt 0.532730 0.342269
vt 0.515242 0.359758
vt 0.484758 0.390242
vt 0.484757 0.359758
vt 0.375000 0.750000
vt 0.875000 0.592269
vt 0.625000 0.750000
vt 0.125000 0.750000
vt 0.125000 0.592269
vt 0.625000 0.000000
vt 0.375000 0.000000
vt 0.515242 0.390242
vt 0.654149 0.750000
vt 0.654149 0.750000
vt 0.845851 0.750000
vt 0.582677 0.000000
vt 0.417323 0.000000
vt 0.417323 0.000000
vt 0.646904 0.000000
vt 0.625000 1.000000
vt 0.375000 1.000000
vt 0.595916 0.750000
vt 0.639296 0.750000
vt 0.639296 0.750000
vt 0.404084 0.750000
vt 0.404084 0.750000
vt 0.875000 0.750000
vt 0.875000 0.750000
vt 0.875000 0.750000
vt 0.875000 0.750000
vt 0.649116 1.000000
vt 0.629341 1.000000
vt 0.628943 0.000000
vt 0.625000 0.750000
vt 0.625000 0.750000
vt 0.627297 0.750000
vt 0.625000 0.750000
vt 0.627297 0.750000
vt 0.875000 0.750000
vt 0.625000 0.750000
vt 0.875000 0.750000
vt 0.568527 0.943527
vt 0.375000 1.000000
vt 0.431473 0.943527
vt 0.431473 0.806473
vt 0.625000 0.750000
vt 0.568527 0.806473
vt 0.875000 0.750000
s 0
usemtl Material
f 12/1/1 14/2/1 8/3/1
f 8/3/2 15/4/2 6/5/2
f 13/6/3 10/7/3 16/8/3
f 6/5/4 16/8/4 10/7/4
f 9/9/5 7/10/5 11/11/5
f 6/5/6 2/12/6 8/3/6
f 10/13/7 1/14/7 6/5/7
f 8/3/8 4/15/8 12/16/8
f 3/17/9 12/1/9 4/18/9
f 7/10/5 13/6/5 11/11/5
f 5/19/5 14/2/5 7/10/5
f 11/11/5 16/8/5 9/9/5
f 9/9/5 15/4/5 5/19/5
f 2/12/8 20/15/8 4/15/8
f 96/20/6 23/21/6 92/21/6
f 23/21/7 98/20/7 100/21/7
f 95/22/5 21/20/5 96/20/5
f 92/21/10 24/22/10 90/22/10
f 25/23/3 27/18/3 28/24/3
f 32/18/11 30/23/11 31/25/11
f 30/23/9 26/26/9 25/23/9
f 32/18/12 28/24/12 27/18/12
f 28/24/5 59/23/5 25/23/5
f 3/17/5 27/18/5 26/26/5
f 20/15/8 27/15/8 4/15/8
f 19/27/10 32/28/10 20/28/10
f 34/29/13 36/12/13 33/30/13
f 39/12/14 37/29/14 38/31/14
f 34/29/6 38/31/6 37/29/6
f 40/32/15 36/12/15 35/33/15
f 35/33/8 85/32/8 40/32/8
f 1/14/5 36/12/5 2/12/5
f 2/12/8 39/12/8 18/12/8
f 17/14/10 39/12/10 38/31/10
f 3/34/7 41/14/7 42/34/7
f 44/35/16 46/36/16 43/34/16
f 49/36/17 47/34/17 48/36/17
f 44/35/4 48/36/4 47/34/4
f 46/36/18 50/37/18 49/36/18
f 61/23/7 67/23/7 69/23/7
f 26/26/5 43/17/5 3/17/5
f 3/34/6 46/36/6 19/34/6
f 29/38/10 46/27/10 49/39/10
f 29/17/9 48/40/9 26/26/9
f 51/41/17 53/14/17 54/42/17
f 55/43/16 57/44/16 58/45/16
f 56/41/4 52/14/4 51/41/4
f 53/14/18 57/44/18 54/42/18
f 17/14/9 52/14/9 1/14/9
f 57/44/7 76/41/7 77/44/7
f 33/30/5 52/14/5 55/43/5
f 38/31/10 53/14/10 17/14/10
f 33/30/6 58/45/6 38/31/6
f 60/24/9 61/23/9 59/23/9
f 25/23/7 61/23/7 30/23/7
f 31/25/8 60/24/8 28/24/8
f 30/23/10 62/25/10 31/25/10
f 64/46/10 73/37/10 66/37/10
f 45/46/7 63/35/7 64/46/7
f 59/23/7 68/24/7 67/23/7
f 44/35/7 65/34/7 63/35/7
f 50/37/7 64/46/7 66/37/7
f 47/34/7 66/37/7 65/34/7
f 70/35/7 73/37/7 71/46/7
f 66/37/9 72/34/9 65/34/9
f 65/34/5 70/35/5 63/35/5
f 63/35/6 71/46/6 64/46/6
f 74/41/5 80/41/5 76/41/5
f 51/41/7 75/42/7 74/41/7
f 56/41/7 74/41/7 76/41/7
f 54/42/7 77/44/7 75/42/7
f 79/42/7 80/41/7 78/41/7
f 75/42/9 78/41/9 74/41/9
f 77/44/10 79/42/10 75/42/10
f 76/41/6 81/44/6 77/44/6
f 84/29/7 86/29/7 82/29/7
f 37/29/7 82/29/7 34/29/7
f 40/32/10 84/29/10 37/29/10
f 34/29/5 83/33/5 35/33/5
f 86/29/6 89/32/6 87/33/6
f 82/29/5 87/33/5 83/33/5
f 83/33/8 89/32/8 85/32/8
f 85/32/10 88/29/10 84/29/10
f 97/44/16 92/21/16 93/47/16
f 94/48/4 96/20/4 97/44/4
f 94/48/17 90/22/17 95/22/17
f 90/22/18 93/47/18 92/21/18
f 17/14/10 91/27/10 19/27/10
f 19/34/9 94/48/9 3/34/9
f 90/22/9 22/22/9 95/22/9
f 1/14/6 93/47/6 17/14/6
f 3/34/5 97/44/5 1/14/5
f 99/22/7 100/21/7 98/20/7
f 21/20/7 99/22/7 98/20/7
f 22/22/7 101/22/7 99/22/7
f 24/22/7 100/21/7 101/22/7
f 106/49/11 108/50/11 109/51/11
f 104/52/19 102/53/19 103/54/19
f 107/27/18 103/54/18 102/53/18
f 105/12/20 109/51/20 108/50/20
f 17/14/6 105/12/6 18/12/6
f 103/54/10 109/51/10 104/52/10
f 19/27/7 102/53/7 17/14/7
f 18/12/8 108/15/8 20/15/8
f 20/28/9 107/27/9 19/27/9
f 12/1/1 13/6/1 14/2/1
f 8/3/2 14/2/2 15/4/2
f 13/6/3 12/1/3 10/7/3
f 6/5/4 15/4/4 16/8/4
f 9/9/5 5/19/5 7/10/5
f 6/5/6 1/14/6 2/12/6
f 10/13/7 3/34/7 1/14/7
f 8/3/8 2/12/8 4/15/8
f 3/17/9 10/7/9 12/1/9
f 7/10/5 14/2/5 13/6/5
f 5/19/5 15/4/5 14/2/5
f 11/11/5 13/6/5 16/8/5
f 9/9/5 16/8/5 15/4/5
f 2/12/8 18/12/8 20/15/8
f 96/20/6 21/20/6 23/21/6
f 23/21/7 21/20/7 98/20/7
f 95/22/5 22/22/5 21/20/5
f 92/21/10 23/21/10 24/22/10
f 25/23/21 26/26/21 27/18/21
f 32/18/22 29/17/22 30/23/22
f 30/23/9 29/17/9 26/26/9
f 32/18/12 31/25/12 28/24/12
f 28/24/5 60/24/5 59/23/5
f 3/17/5 4/18/5 27/18/5
f 20/15/8 32/15/8 27/15/8
f 19/27/10 29/38/10 32/28/10
f 34/29/2 35/33/2 36/12/2
f 39/12/19 40/32/19 37/29/19
f 34/29/6 33/30/6 38/31/6
f 40/32/15 39/12/15 36/12/15
f 35/33/8 83/33/8 85/32/8
f 1/14/5 33/30/5 36/12/5
f 2/12/8 36/12/8 39/12/8
f 17/14/10 18/12/10 39/12/10
f 3/34/7 1/14/7 41/14/7
f 44/35/16 45/46/16 46/36/16
f 49/36/17 50/37/17 47/34/17
f 44/35/4 43/34/4 48/36/4
f 46/36/18 45/46/18 50/37/18
f 61/23/7 59/23/7 67/23/7
f 26/26/5 48/40/5 43/17/5
f 3/34/6 43/34/6 46/36/6
f 29/38/10 19/27/10 46/27/10
f 29/17/9 49/17/9 48/40/9
f 51/41/17 52/14/17 53/14/17
f 55/43/16 56/41/16 57/44/16
f 56/41/4 55/43/4 52/14/4
f 53/14/18 58/45/18 57/44/18
f 17/14/9 53/14/9 52/14/9
f 57/44/7 56/41/7 76/41/7
f 33/30/5 1/14/5 52/14/5
f 38/31/10 58/45/10 53/14/10
f 33/30/6 55/43/6 58/45/6
f 60/24/9 62/25/9 61/23/9
f 25/23/7 59/23/7 61/23/7
f 31/25/8 62/25/8 60/24/8
f 30/23/10 61/23/10 62/25/10
f 64/46/10 71/46/10 73/37/10
f 45/46/7 44/35/7 63/35/7
f 59/23/7 60/24/7 68/24/7
f 44/35/7 47/34/7 65/34/7
f 50/37/7 45/46/7 64/46/7
f 47/34/7 50/37/7 66/37/7
f 70/35/7 72/34/7 73/37/7
f 66/37/9 73/37/9 72/34/9
f 65/34/5 72/34/5 70/35/5
f 63/35/6 70/35/6 71/46/6
f 74/41/5 78/41/5 80/41/5
f 51/41/7 54/42/7 75/42/7
f 56/41/7 51/41/7 74/41/7
f 54/42/7 57/44/7 77/44/7
f 79/42/7 81/44/7 80/41/7
f 75/42/9 79/42/9 78/41/9
f 77/44/10 81/44/10 79/42/10
f 76/41/6 80/41/6 81/44/6
f 84/29/7 88/29/7 86/29/7
f 37/29/7 84/29/7 82/29/7
f 40/32/10 85/32/10 84/29/10
f 34/29/5 82/29/5 83/33/5
f 86/29/6 88/29/6 89/32/6
f 82/29/5 86/29/5 87/33/5
f 83/33/8 87/33/8 89/32/8
f 85/32/10 89/32/10 88/29/10
f 97/44/16 96/20/16 92/21/16
f 94/48/4 95/22/4 96/20/4
f 94/48/17 91/55/17 90/22/17
f 90/22/18 91/55/18 93/47/18
f 17/14/10 93/47/10 91/27/10
f 19/34/9 91/55/9 94/48/9
f 90/22/9 24/22/9 22/22/9
f 1/14/6 97/44/6 93/47/6
f 3/34/5 94/48/5 97/44/5
f 99/22/7 101/22/7 100/21/7
f 21/20/7 22/22/7 99/22/7
f 22/22/7 24/22/7 101/22/7
f 24/22/7 23/21/7 100/21/7
f 106/49/11 107/27/11 108/50/11
f 104/52/19 105/12/19 102/53/19
f 107/27/18 106/49/18 103/54/18
f 105/12/20 104/52/20 109/51/20
f 17/14/6 102/53/6 105/12/6
f 103/54/10 106/49/10 109/51/10
f 19/27/7 107/27/7 102/53/7
f 18/12/8 105/12/8 108/15/8
f 20/28/9 108/50/9 107/27/9
